<svg width="178" height="32" viewBox="0 0 178 32" fill="none" xmlns="http://www.w3.org/2000/svg">
<path d="M162.219 14.7926C161.955 11.0676 160.353 7.56344 157.709 4.9263C157.365 4.58609 157.01 4.26482 156.644 3.96248C158.369 3.18446 160.24 2.78239 162.133 2.78299V0.372539C159.415 0.362723 156.743 1.06039 154.377 2.39693C151.4 0.71812 147.958 0.056737 144.571 0.513267C141.185 0.969797 138.04 2.51928 135.614 4.9263C132.623 7.8728 131.016 11.8018 131.016 15.9979C131.016 16.2641 131.023 16.5357 131.036 16.8037C130.839 19.9494 129.522 22.9206 127.325 25.1802C125.127 27.4398 122.194 28.8386 119.055 29.124V0.372539H117.844C113.647 0.372539 109.718 1.9798 106.771 4.9263C105.332 6.3624 104.19 8.06815 103.41 9.946C101.036 4.32635 95.4716 0.372539 89 0.372539V2.78299C95.8755 2.78299 101.545 8.05119 102.171 14.7926H75.7416C75.4779 11.0676 73.8763 7.56344 71.2322 4.9263C68.2414 1.9798 64.3577 0.372539 60.1607 0.372539C58.1129 0.365542 56.0841 0.764368 54.1914 1.54598C52.2987 2.32759 50.5796 3.47649 49.1335 4.9263C47.6838 6.37105 46.5306 8.08532 45.7388 9.97263C43.3754 4.33966 37.8037 0.372539 31.3214 0.372539V2.78299C38.1968 2.78299 43.8671 8.05119 44.4919 14.7926H31.4554C30.8377 6.73769 24.0865 0.372539 15.8753 0.372539C7.26125 0.372539 0.25 7.38379 0.25 15.9979C0.25 24.6119 7.26125 31.6241 15.8753 31.6241V29.2163C8.59782 29.2163 2.66045 23.2789 2.66045 16.0014C2.66045 8.72391 8.59871 2.78654 15.8753 2.78654C22.7463 2.78654 28.4219 8.08048 29.0343 14.7962H15.6925V16.0014C15.6925 24.6182 22.7037 31.6276 31.3178 31.6276C39.9319 31.6276 46.944 24.6164 46.944 16.0014C46.944 15.9837 46.944 15.9659 46.944 15.9473C46.951 12.6569 48.1865 9.48782 50.4084 7.06102C52.6304 4.63421 55.6785 3.12467 58.9555 2.82825V31.6241H61.3659V2.82825C64.6351 3.12419 67.6767 4.6277 69.8971 7.04535C72.1175 9.463 73.3574 12.6213 73.3747 15.9038V16.0005C73.3747 24.6173 80.3859 31.6267 89 31.6267C95.4787 31.6267 101.049 27.6632 103.414 22.0329C104.401 24.4006 105.957 26.4882 107.944 28.1108C109.931 29.7333 112.288 30.8407 114.805 31.3347C117.322 31.8287 119.922 31.6941 122.375 30.9428C124.828 30.1915 127.058 28.8468 128.866 27.0277C130.294 25.604 131.435 23.9191 132.227 22.0648C133.016 23.9252 134.164 25.6117 135.606 27.0277C138.017 29.4594 141.163 31.0268 144.556 31.4862C147.949 31.9457 151.398 31.2716 154.369 29.5686C156.747 30.9163 159.437 31.6179 162.171 31.6037C164.904 31.5895 167.586 30.86 169.951 29.4877C172.315 28.1155 174.279 26.1482 175.647 23.7816C177.015 21.415 177.74 18.7315 177.75 15.9979V14.7926H162.219ZM31.3214 29.2163C24.4468 29.2163 18.7766 23.9037 18.1518 17.2066H44.4919C43.8671 23.9002 38.1968 29.2163 31.3214 29.2163ZM89 29.2163C82.1245 29.2163 76.4552 23.9037 75.8295 17.2066H102.171C101.545 23.9002 95.8755 29.2163 89 29.2163ZM116.634 29.1275C113.546 28.8728 110.65 27.5276 108.464 25.3326C105.979 22.8476 104.639 19.5638 104.624 16.0564C104.624 16.0378 104.624 16.0201 104.624 16.0014C104.624 15.9828 104.624 15.965 104.624 15.9473C104.639 12.4399 105.977 9.11353 108.464 6.62853C110.696 4.44084 113.553 3.10071 116.634 2.83358V29.1275ZM155.965 6.6232C157.195 7.84992 158.172 9.30756 158.839 10.9125C159.505 12.5175 159.848 14.2383 159.848 15.9761C159.848 17.714 159.505 19.4347 158.839 21.0397C158.172 22.6447 157.195 24.1023 155.965 25.329C155.466 25.8275 154.929 26.2863 154.359 26.7011C153.787 26.287 153.249 25.8282 152.749 25.329C150.249 22.8263 148.906 19.5248 148.906 15.9979C148.906 12.4709 150.245 9.12329 152.746 6.6232C153.246 6.13156 153.784 5.67991 154.355 5.27243C154.926 5.6805 155.464 6.1321 155.965 6.6232ZM146.633 29.2163C143.271 29.2039 140.038 27.9148 137.589 25.6099C135.141 23.3049 133.659 20.1561 133.443 16.8002C133.458 16.5339 133.465 16.2677 133.465 16.0014V14.8991C133.643 12.7892 134.324 10.7529 135.453 8.9614C136.582 7.1699 138.124 5.67561 139.95 4.60421C141.777 3.53281 143.834 2.91563 145.948 2.80457C148.063 2.69352 150.173 3.09183 152.101 3.96603C151.739 4.26866 151.391 4.58728 151.049 4.9263C148.102 7.8728 146.495 11.8018 146.495 15.9979C146.488 18.0456 146.887 20.0744 147.668 21.9672C148.45 23.8599 149.599 25.5789 151.049 27.0251C151.395 27.3724 151.755 27.7007 152.129 28.0102C150.406 28.8062 148.531 29.2178 146.633 29.2163ZM171.455 25.3326C169.551 27.2438 167.107 28.5257 164.453 29.0057C161.798 29.4857 159.06 29.1407 156.608 28.0173C156.986 27.7066 157.352 27.3771 157.705 27.0286C160.339 24.4028 161.94 20.916 162.213 17.2066H175.25C174.983 20.2771 173.639 23.1541 171.455 25.329V25.3326Z" fill="black"/>
</svg>
